<?xml version="1.0" encoding="UTF-8" standalone="no"?>
<!DOCTYPE svg PUBLIC "-//W3C//DTD SVG 1.1//EN"
 "http://www.w3.org/Graphics/SVG/1.1/DTD/svg11.dtd">
<!-- Generated by graphviz version 2.38.0 (20140413.2041)
 -->
<!-- Title: output Pages: 1 -->
<svg width="585pt" height="1099pt"
 viewBox="0.00 0.00 585.00 1099.00" xmlns="http://www.w3.org/2000/svg" xmlns:xlink="http://www.w3.org/1999/xlink">
<g id="graph0" class="graph" transform="scale(1 1) rotate(0) translate(4 1095)">
<title>output</title>
<polygon fill="white" stroke="none" points="-4,4 -4,-1095 581,-1095 581,4 -4,4"/>
<!-- Legend -->
<g id="node1" class="node"><title>Legend</title>
<polygon fill="#e0e0e0" stroke="none" points="8.5,-1036.5 8.5,-1059.5 209.5,-1059.5 209.5,-1036.5 8.5,-1036.5"/>
<polygon fill="none" stroke="black" points="8.5,-1036.5 8.5,-1059.5 209.5,-1059.5 209.5,-1036.5 8.5,-1036.5"/>
<text text-anchor="start" x="93" y="-1044.3" font-family="Times,serif" font-size="14.00">Layer</text>
<polygon fill="#88ffff" stroke="none" points="8.5,-998.5 8.5,-1036.5 89.5,-1036.5 89.5,-998.5 8.5,-998.5"/>
<polygon fill="none" stroke="black" points="8.5,-998.5 8.5,-1036.5 89.5,-1036.5 89.5,-998.5 8.5,-998.5"/>
<text text-anchor="start" x="12.5" y="-1021.3" font-family="Times,serif" font-size="14.00"> Complexity </text>
<text text-anchor="start" x="15" y="-1006.3" font-family="Times,serif" font-size="14.00"> (MFLOPs) </text>
<polygon fill="#ff88ff" stroke="none" points="89.5,-998.5 89.5,-1036.5 164.5,-1036.5 164.5,-998.5 89.5,-998.5"/>
<polygon fill="none" stroke="black" points="89.5,-998.5 89.5,-1036.5 164.5,-1036.5 164.5,-998.5 89.5,-998.5"/>
<text text-anchor="start" x="93.5" y="-1021.3" font-family="Times,serif" font-size="14.00"> Bandwidth </text>
<text text-anchor="start" x="103" y="-1006.3" font-family="Times,serif" font-size="14.00"> (MB/s) </text>
<polygon fill="#ffff88" stroke="none" points="164.5,-998.5 164.5,-1036.5 209.5,-1036.5 209.5,-998.5 164.5,-998.5"/>
<polygon fill="none" stroke="black" points="164.5,-998.5 164.5,-1036.5 209.5,-1036.5 209.5,-998.5 164.5,-998.5"/>
<text text-anchor="start" x="168.5" y="-1021.3" font-family="Times,serif" font-size="14.00"> Time </text>
<text text-anchor="start" x="172" y="-1006.3" font-family="Times,serif" font-size="14.00"> (ms)</text>
</g>
<!-- Input -->
<g id="node2" class="node"><title>Input</title>
<ellipse fill="none" stroke="black" cx="296.5" cy="-1029.5" rx="61.99" ry="18"/>
<text text-anchor="middle" x="296.5" y="-1025.8" font-family="Times,serif" font-size="14.00">input: (1, 784)</text>
</g>
<!-- conv1/Relu -->
<g id="node3" class="node"><title>conv1/Relu</title>
<polygon fill="#a3a3a3" stroke="none" points="210.5,-905 210.5,-928 382.5,-928 382.5,-905 210.5,-905"/>
<polygon fill="none" stroke="black" points="210.5,-905 210.5,-928 382.5,-928 382.5,-905 210.5,-905"/>
<text text-anchor="start" x="265" y="-912.8" font-family="Times,serif" font-size="14.00">conv1/Relu</text>
<polygon fill="#dddddd" stroke="none" points="210.5,-882 210.5,-905 382.5,-905 382.5,-882 210.5,-882"/>
<polygon fill="none" stroke="black" points="210.5,-882 210.5,-905 382.5,-905 382.5,-882 210.5,-882"/>
<text text-anchor="start" x="264" y="-889.8" font-family="Times,serif" font-size="14.00">(32, 28, 28)</text>
<polygon fill="#a8efec" stroke="none" points="210.5,-844 210.5,-882 286.5,-882 286.5,-844 210.5,-844"/>
<polygon fill="none" stroke="black" points="210.5,-844 210.5,-882 286.5,-882 286.5,-844 210.5,-844"/>
<text text-anchor="start" x="225.5" y="-866.8" font-family="Times,serif" font-size="14.00"> 1.2544 </text>
<text text-anchor="start" x="214.5" y="-851.8" font-family="Times,serif" font-size="14.00"> (MFLOPs) </text>
<polygon fill="#f8d3f3" stroke="none" points="286.5,-844 286.5,-882 342.5,-882 342.5,-844 286.5,-844"/>
<polygon fill="none" stroke="black" points="286.5,-844 286.5,-882 342.5,-882 342.5,-844 286.5,-844"/>
<text text-anchor="start" x="291.5" y="-866.8" font-family="Times,serif" font-size="14.00"> 185.13 </text>
<text text-anchor="start" x="290.5" y="-851.8" font-family="Times,serif" font-size="14.00"> (MB/s) </text>
<polygon fill="#ffffbf" stroke="none" points="342.5,-844 342.5,-882 382.5,-882 382.5,-844 342.5,-844"/>
<polygon fill="none" stroke="black" points="342.5,-844 342.5,-882 382.5,-882 382.5,-844 342.5,-844"/>
<text text-anchor="start" x="346.5" y="-866.8" font-family="Times,serif" font-size="14.00"> 0.22 </text>
<text text-anchor="start" x="347.5" y="-851.8" font-family="Times,serif" font-size="14.00"> (ms)</text>
</g>
<!-- Input&#45;&gt;conv1/Relu -->
<g id="edge1" class="edge"><title>Input&#45;&gt;conv1/Relu</title>
<path fill="none" stroke="black" d="M296.5,-1011.43C296.5,-994.247 296.5,-966.812 296.5,-942.07"/>
<polygon fill="black" stroke="black" points="300,-942.031 296.5,-932.031 293,-942.031 300,-942.031"/>
</g>
<!-- pool1/MaxPool -->
<g id="node4" class="node"><title>pool1/MaxPool</title>
<polygon fill="#a3a3a3" stroke="none" points="210.5,-777 210.5,-800 382.5,-800 382.5,-777 210.5,-777"/>
<polygon fill="none" stroke="black" points="210.5,-777 210.5,-800 382.5,-800 382.5,-777 210.5,-777"/>
<text text-anchor="start" x="254" y="-784.8" font-family="Times,serif" font-size="14.00">pool1/MaxPool</text>
<polygon fill="#dddddd" stroke="none" points="210.5,-754 210.5,-777 382.5,-777 382.5,-754 210.5,-754"/>
<polygon fill="none" stroke="black" points="210.5,-754 210.5,-777 382.5,-777 382.5,-754 210.5,-754"/>
<text text-anchor="start" x="264" y="-761.8" font-family="Times,serif" font-size="14.00">(32, 14, 14)</text>
<polygon fill="#b0f0ee" stroke="none" points="210.5,-716 210.5,-754 286.5,-754 286.5,-716 210.5,-716"/>
<polygon fill="none" stroke="black" points="210.5,-716 210.5,-754 286.5,-754 286.5,-716 210.5,-716"/>
<text text-anchor="start" x="219" y="-738.8" font-family="Times,serif" font-size="14.00"> 0.025088 </text>
<text text-anchor="start" x="214.5" y="-723.8" font-family="Times,serif" font-size="14.00"> (MFLOPs) </text>
<polygon fill="#eeb9e7" stroke="none" points="286.5,-716 286.5,-754 342.5,-754 342.5,-716 286.5,-716"/>
<polygon fill="none" stroke="black" points="286.5,-716 286.5,-754 342.5,-754 342.5,-716 286.5,-716"/>
<text text-anchor="start" x="291.5" y="-738.8" font-family="Times,serif" font-size="14.00"> 455.48 </text>
<text text-anchor="start" x="290.5" y="-723.8" font-family="Times,serif" font-size="14.00"> (MB/s) </text>
<polygon fill="#ffffc7" stroke="none" points="342.5,-716 342.5,-754 382.5,-754 382.5,-716 342.5,-716"/>
<polygon fill="none" stroke="black" points="342.5,-716 342.5,-754 382.5,-754 382.5,-716 342.5,-716"/>
<text text-anchor="start" x="346.5" y="-738.8" font-family="Times,serif" font-size="14.00"> 0.11 </text>
<text text-anchor="start" x="347.5" y="-723.8" font-family="Times,serif" font-size="14.00"> (ms)</text>
</g>
<!-- conv1/Relu&#45;&gt;pool1/MaxPool -->
<g id="edge2" class="edge"><title>conv1/Relu&#45;&gt;pool1/MaxPool</title>
<path fill="none" stroke="black" d="M296.5,-839.867C296.5,-831.634 296.5,-822.957 296.5,-814.465"/>
<polygon fill="black" stroke="black" points="300,-814.241 296.5,-804.241 293,-814.241 300,-814.241"/>
</g>
<!-- conv2/Relu -->
<g id="node5" class="node"><title>conv2/Relu</title>
<polygon fill="#a3a3a3" stroke="none" points="210.5,-649 210.5,-672 382.5,-672 382.5,-649 210.5,-649"/>
<polygon fill="none" stroke="black" points="210.5,-649 210.5,-672 382.5,-672 382.5,-649 210.5,-649"/>
<text text-anchor="start" x="265" y="-656.8" font-family="Times,serif" font-size="14.00">conv2/Relu</text>
<polygon fill="#dddddd" stroke="none" points="210.5,-626 210.5,-649 382.5,-649 382.5,-626 210.5,-626"/>
<polygon fill="none" stroke="black" points="210.5,-626 210.5,-649 382.5,-649 382.5,-626 210.5,-626"/>
<text text-anchor="start" x="264" y="-633.8" font-family="Times,serif" font-size="14.00">(64, 14, 14)</text>
<polygon fill="#2ed1c6" stroke="none" points="210.5,-588 210.5,-626 286.5,-626 286.5,-588 210.5,-588"/>
<polygon fill="none" stroke="black" points="210.5,-588 210.5,-626 286.5,-626 286.5,-588 210.5,-588"/>
<text text-anchor="start" x="222.5" y="-610.8" font-family="Times,serif" font-size="14.00"> 20.0704 </text>
<text text-anchor="start" x="214.5" y="-595.8" font-family="Times,serif" font-size="14.00"> (MFLOPs) </text>
<polygon fill="#f0beea" stroke="none" points="286.5,-588 286.5,-626 342.5,-626 342.5,-588 286.5,-588"/>
<polygon fill="none" stroke="black" points="286.5,-588 286.5,-626 342.5,-626 342.5,-588 286.5,-588"/>
<text text-anchor="start" x="291.5" y="-610.8" font-family="Times,serif" font-size="14.00"> 403.61 </text>
<text text-anchor="start" x="290.5" y="-595.8" font-family="Times,serif" font-size="14.00"> (MB/s) </text>
<polygon fill="#ffff88" stroke="none" points="342.5,-588 342.5,-626 382.5,-626 382.5,-588 342.5,-588"/>
<polygon fill="none" stroke="black" points="342.5,-588 342.5,-626 382.5,-626 382.5,-588 342.5,-588"/>
<text text-anchor="start" x="346.5" y="-610.8" font-family="Times,serif" font-size="14.00"> 0.99 </text>
<text text-anchor="start" x="347.5" y="-595.8" font-family="Times,serif" font-size="14.00"> (ms)</text>
</g>
<!-- pool1/MaxPool&#45;&gt;conv2/Relu -->
<g id="edge3" class="edge"><title>pool1/MaxPool&#45;&gt;conv2/Relu</title>
<path fill="none" stroke="black" d="M296.5,-711.867C296.5,-703.634 296.5,-694.957 296.5,-686.465"/>
<polygon fill="black" stroke="black" points="300,-686.241 296.5,-676.241 293,-686.241 300,-686.241"/>
</g>
<!-- pool2/MaxPool -->
<g id="node6" class="node"><title>pool2/MaxPool</title>
<polygon fill="#a3a3a3" stroke="none" points="210.5,-521 210.5,-544 382.5,-544 382.5,-521 210.5,-521"/>
<polygon fill="none" stroke="black" points="210.5,-521 210.5,-544 382.5,-544 382.5,-521 210.5,-521"/>
<text text-anchor="start" x="254" y="-528.8" font-family="Times,serif" font-size="14.00">pool2/MaxPool</text>
<polygon fill="#dddddd" stroke="none" points="210.5,-498 210.5,-521 382.5,-521 382.5,-498 210.5,-498"/>
<polygon fill="none" stroke="black" points="210.5,-498 210.5,-521 382.5,-521 382.5,-498 210.5,-498"/>
<text text-anchor="start" x="270.5" y="-505.8" font-family="Times,serif" font-size="14.00">(64, 7, 7)</text>
<polygon fill="#b0f0ee" stroke="none" points="210.5,-460 210.5,-498 286.5,-498 286.5,-460 210.5,-460"/>
<polygon fill="none" stroke="black" points="210.5,-460 210.5,-498 286.5,-498 286.5,-460 210.5,-460"/>
<text text-anchor="start" x="219" y="-482.8" font-family="Times,serif" font-size="14.00"> 0.012544 </text>
<text text-anchor="start" x="214.5" y="-467.8" font-family="Times,serif" font-size="14.00"> (MFLOPs) </text>
<polygon fill="#f0bfea" stroke="none" points="286.5,-460 286.5,-498 342.5,-498 342.5,-460 286.5,-460"/>
<polygon fill="none" stroke="black" points="286.5,-460 286.5,-498 342.5,-498 342.5,-460 286.5,-460"/>
<text text-anchor="start" x="291.5" y="-482.8" font-family="Times,serif" font-size="14.00"> 391.32 </text>
<text text-anchor="start" x="290.5" y="-467.8" font-family="Times,serif" font-size="14.00"> (MB/s) </text>
<polygon fill="#ffffcb" stroke="none" points="342.5,-460 342.5,-498 382.5,-498 382.5,-460 342.5,-460"/>
<polygon fill="none" stroke="black" points="342.5,-460 342.5,-498 382.5,-498 382.5,-460 342.5,-460"/>
<text text-anchor="start" x="346.5" y="-482.8" font-family="Times,serif" font-size="14.00"> 0.06 </text>
<text text-anchor="start" x="347.5" y="-467.8" font-family="Times,serif" font-size="14.00"> (ms)</text>
</g>
<!-- conv2/Relu&#45;&gt;pool2/MaxPool -->
<g id="edge4" class="edge"><title>conv2/Relu&#45;&gt;pool2/MaxPool</title>
<path fill="none" stroke="black" d="M296.5,-583.867C296.5,-575.634 296.5,-566.957 296.5,-558.465"/>
<polygon fill="black" stroke="black" points="300,-558.241 296.5,-548.241 293,-558.241 300,-558.241"/>
</g>
<!-- fc1/Relu -->
<g id="node7" class="node"><title>fc1/Relu</title>
<polygon fill="#a3a3a3" stroke="none" points="208.5,-393 208.5,-416 384.5,-416 384.5,-393 208.5,-393"/>
<polygon fill="none" stroke="black" points="208.5,-393 208.5,-416 384.5,-416 384.5,-393 208.5,-393"/>
<text text-anchor="start" x="273" y="-400.8" font-family="Times,serif" font-size="14.00">fc1/Relu</text>
<polygon fill="#dddddd" stroke="none" points="208.5,-370 208.5,-393 384.5,-393 384.5,-370 208.5,-370"/>
<polygon fill="none" stroke="black" points="208.5,-370 208.5,-393 384.5,-393 384.5,-370 208.5,-370"/>
<text text-anchor="start" x="264" y="-377.8" font-family="Times,serif" font-size="14.00">(1024, 1, 1)</text>
<polygon fill="#87e6e1" stroke="none" points="208.5,-332 208.5,-370 284.5,-370 284.5,-332 208.5,-332"/>
<polygon fill="none" stroke="black" points="208.5,-332 208.5,-370 284.5,-370 284.5,-332 208.5,-332"/>
<text text-anchor="start" x="217" y="-354.8" font-family="Times,serif" font-size="14.00"> 6.422528 </text>
<text text-anchor="start" x="212.5" y="-339.8" font-family="Times,serif" font-size="14.00"> (MFLOPs) </text>
<polygon fill="#b1179d" stroke="none" points="284.5,-332 284.5,-370 344.5,-370 344.5,-332 284.5,-332"/>
<polygon fill="none" stroke="black" points="284.5,-332 284.5,-370 344.5,-370 344.5,-332 284.5,-332"/>
<text text-anchor="start" x="288.5" y="-354.8" font-family="Times,serif" font-size="14.00"> 2121.02 </text>
<text text-anchor="start" x="290.5" y="-339.8" font-family="Times,serif" font-size="14.00"> (MB/s) </text>
<polygon fill="#ffff00" stroke="none" points="344.5,-332 344.5,-370 384.5,-370 384.5,-332 344.5,-332"/>
<polygon fill="none" stroke="black" points="344.5,-332 344.5,-370 384.5,-370 384.5,-332 344.5,-332"/>
<text text-anchor="start" x="348.5" y="-354.8" font-family="Times,serif" font-size="14.00"> 2.89 </text>
<text text-anchor="start" x="349.5" y="-339.8" font-family="Times,serif" font-size="14.00"> (ms)</text>
</g>
<!-- pool2/MaxPool&#45;&gt;fc1/Relu -->
<g id="edge5" class="edge"><title>pool2/MaxPool&#45;&gt;fc1/Relu</title>
<path fill="none" stroke="black" d="M296.5,-455.867C296.5,-447.634 296.5,-438.957 296.5,-430.465"/>
<polygon fill="black" stroke="black" points="300,-430.241 296.5,-420.241 293,-430.241 300,-430.241"/>
</g>
<!-- fc2/add -->
<g id="node8" class="node"><title>fc2/add</title>
<polygon fill="#a3a3a3" stroke="none" points="210.5,-265 210.5,-288 382.5,-288 382.5,-265 210.5,-265"/>
<polygon fill="none" stroke="black" points="210.5,-265 210.5,-288 382.5,-288 382.5,-265 210.5,-265"/>
<text text-anchor="start" x="276" y="-272.8" font-family="Times,serif" font-size="14.00">fc2/add</text>
<polygon fill="#dddddd" stroke="none" points="210.5,-242 210.5,-265 382.5,-265 382.5,-242 210.5,-242"/>
<polygon fill="none" stroke="black" points="210.5,-242 210.5,-265 382.5,-265 382.5,-242 210.5,-242"/>
<text text-anchor="start" x="270.5" y="-249.8" font-family="Times,serif" font-size="14.00">(10, 1, 1)</text>
<polygon fill="#b0f0ee" stroke="none" points="210.5,-204 210.5,-242 286.5,-242 286.5,-204 210.5,-204"/>
<polygon fill="none" stroke="black" points="210.5,-204 210.5,-242 286.5,-242 286.5,-204 210.5,-204"/>
<text text-anchor="start" x="222.5" y="-226.8" font-family="Times,serif" font-size="14.00"> 0.02048 </text>
<text text-anchor="start" x="214.5" y="-211.8" font-family="Times,serif" font-size="14.00"> (MFLOPs) </text>
<polygon fill="#efbae8" stroke="none" points="286.5,-204 286.5,-242 342.5,-242 342.5,-204 286.5,-204"/>
<polygon fill="none" stroke="black" points="286.5,-204 286.5,-242 342.5,-242 342.5,-204 286.5,-204"/>
<text text-anchor="start" x="291.5" y="-226.8" font-family="Times,serif" font-size="14.00"> 437.98 </text>
<text text-anchor="start" x="290.5" y="-211.8" font-family="Times,serif" font-size="14.00"> (MB/s) </text>
<polygon fill="#ffffcb" stroke="none" points="342.5,-204 342.5,-242 382.5,-242 382.5,-204 342.5,-204"/>
<polygon fill="none" stroke="black" points="342.5,-204 342.5,-242 382.5,-242 382.5,-204 342.5,-204"/>
<text text-anchor="start" x="346.5" y="-226.8" font-family="Times,serif" font-size="14.00"> 0.05 </text>
<text text-anchor="start" x="347.5" y="-211.8" font-family="Times,serif" font-size="14.00"> (ms)</text>
</g>
<!-- fc1/Relu&#45;&gt;fc2/add -->
<g id="edge6" class="edge"><title>fc1/Relu&#45;&gt;fc2/add</title>
<path fill="none" stroke="black" d="M296.5,-327.867C296.5,-319.634 296.5,-310.957 296.5,-302.465"/>
<polygon fill="black" stroke="black" points="300,-302.241 296.5,-292.241 293,-302.241 300,-302.241"/>
</g>
<!-- output -->
<g id="node9" class="node"><title>output</title>
<polygon fill="#a3a3a3" stroke="none" points="210.5,-137 210.5,-160 382.5,-160 382.5,-137 210.5,-137"/>
<polygon fill="none" stroke="black" points="210.5,-137 210.5,-160 382.5,-160 382.5,-137 210.5,-137"/>
<text text-anchor="start" x="279" y="-144.8" font-family="Times,serif" font-size="14.00">output</text>
<polygon fill="#dddddd" stroke="none" points="210.5,-114 210.5,-137 382.5,-137 382.5,-114 210.5,-114"/>
<polygon fill="none" stroke="black" points="210.5,-114 210.5,-137 382.5,-137 382.5,-114 210.5,-114"/>
<text text-anchor="start" x="270.5" y="-121.8" font-family="Times,serif" font-size="14.00">(10, 1, 1)</text>
<polygon fill="#b1f1ef" stroke="none" points="210.5,-76 210.5,-114 286.5,-114 286.5,-76 210.5,-76"/>
<polygon fill="none" stroke="black" points="210.5,-76 210.5,-114 286.5,-114 286.5,-76 210.5,-76"/>
<text text-anchor="start" x="229" y="-98.8" font-family="Times,serif" font-size="14.00"> 3e&#45;05 </text>
<text text-anchor="start" x="214.5" y="-83.8" font-family="Times,serif" font-size="14.00"> (MFLOPs) </text>
<polygon fill="#fee4fb" stroke="none" points="286.5,-76 286.5,-114 342.5,-114 342.5,-76 286.5,-76"/>
<polygon fill="none" stroke="black" points="286.5,-76 286.5,-114 342.5,-114 342.5,-76 286.5,-76"/>
<text text-anchor="start" x="298.5" y="-98.8" font-family="Times,serif" font-size="14.00"> 0.77 </text>
<text text-anchor="start" x="290.5" y="-83.8" font-family="Times,serif" font-size="14.00"> (MB/s) </text>
<polygon fill="#ffffcb" stroke="none" points="342.5,-76 342.5,-114 382.5,-114 382.5,-76 342.5,-76"/>
<polygon fill="none" stroke="black" points="342.5,-76 342.5,-114 382.5,-114 382.5,-76 342.5,-76"/>
<text text-anchor="start" x="346.5" y="-98.8" font-family="Times,serif" font-size="14.00"> 0.05 </text>
<text text-anchor="start" x="347.5" y="-83.8" font-family="Times,serif" font-size="14.00"> (ms)</text>
</g>
<!-- fc2/add&#45;&gt;output -->
<g id="edge7" class="edge"><title>fc2/add&#45;&gt;output</title>
<path fill="none" stroke="black" d="M296.5,-199.867C296.5,-191.634 296.5,-182.957 296.5,-174.465"/>
<polygon fill="black" stroke="black" points="300,-174.241 296.5,-164.241 293,-174.241 300,-174.241"/>
</g>
<!-- Output -->
<g id="node10" class="node"><title>Output</title>
<ellipse fill="none" stroke="black" cx="296.5" cy="-18" rx="71.4873" ry="18"/>
<text text-anchor="middle" x="296.5" y="-14.3" font-family="Times,serif" font-size="14.00">output: [1, 1, 10]</text>
</g>
<!-- output&#45;&gt;Output -->
<g id="edge8" class="edge"><title>output&#45;&gt;Output</title>
<path fill="none" stroke="black" d="M296.5,-71.7292C296.5,-63.0404 296.5,-54.1943 296.5,-46.2922"/>
<polygon fill="black" stroke="black" points="300,-46.2052 296.5,-36.2053 293,-46.2053 300,-46.2052"/>
</g>
<!-- Summary -->
<g id="node11" class="node"><title>Summary</title>
<polygon fill="#c60000" stroke="none" points="384.5,-1063.5 384.5,-1086.5 569.5,-1086.5 569.5,-1063.5 384.5,-1063.5"/>
<polygon fill="none" stroke="black" points="384.5,-1063.5 384.5,-1086.5 569.5,-1086.5 569.5,-1063.5 384.5,-1063.5"/>
<text text-anchor="start" x="449.5" y="-1071.3" font-family="Times,serif" font-size="14.00">Summary</text>
<polygon fill="#e2e2e2" stroke="none" points="384.5,-1040.5 384.5,-1063.5 569.5,-1063.5 569.5,-1040.5 384.5,-1040.5"/>
<polygon fill="none" stroke="black" points="384.5,-1040.5 384.5,-1063.5 569.5,-1063.5 569.5,-1040.5 384.5,-1040.5"/>
<text text-anchor="start" x="424" y="-1048.3" font-family="Times,serif" font-size="14.00">12 SHV Processors</text>
<polygon fill="#dadada" stroke="none" points="384.5,-1017.5 384.5,-1040.5 569.5,-1040.5 569.5,-1017.5 384.5,-1017.5"/>
<polygon fill="none" stroke="black" points="384.5,-1017.5 384.5,-1040.5 569.5,-1040.5 569.5,-1017.5 384.5,-1017.5"/>
<text text-anchor="start" x="413" y="-1025.3" font-family="Times,serif" font-size="14.00">Inference time 4.37 ms</text>
<polygon fill="#e2e2e2" stroke="none" points="384.5,-994.5 384.5,-1017.5 569.5,-1017.5 569.5,-994.5 384.5,-994.5"/>
<polygon fill="none" stroke="black" points="384.5,-994.5 384.5,-1017.5 569.5,-1017.5 569.5,-994.5 384.5,-994.5"/>
<text text-anchor="start" x="400" y="-1002.3" font-family="Times,serif" font-size="14.00">Bandwidth 1527.01 MB/sec</text>
<polygon fill="#dadada" stroke="none" points="384.5,-971.5 384.5,-994.5 569.5,-994.5 569.5,-971.5 384.5,-971.5"/>
<polygon fill="none" stroke="black" points="384.5,-971.5 384.5,-994.5 569.5,-994.5 569.5,-971.5 384.5,-971.5"/>
<text text-anchor="start" x="388.5" y="-979.3" font-family="Times,serif" font-size="14.00">This network is Compute bound</text>
</g>
</g>
</svg>
